<mxfile host="app.diagrams.net" agent="Mozilla/5.0 (Windows NT 10.0; Win64; x64) AppleWebKit/537.36 (KHTML, like Gecko) Chrome/130.0.0.0 Safari/537.36 Edg/130.0.0.0" version="24.8.4">
  <diagram id="C5RBs43oDa-KdzZeNtuy" name="Page-1">
    <mxGraphModel dx="2574" dy="1016" grid="0" gridSize="10" guides="1" tooltips="1" connect="1" arrows="1" fold="1" page="1" pageScale="1" pageWidth="827" pageHeight="1169" math="0" shadow="0">
      <root>
        <mxCell id="WIyWlLk6GJQsqaUBKTNV-0" />
        <mxCell id="WIyWlLk6GJQsqaUBKTNV-1" parent="WIyWlLk6GJQsqaUBKTNV-0" />
        <mxCell id="hc3WRIubCdPKdag3Kyi3-89" style="edgeStyle=orthogonalEdgeStyle;rounded=0;orthogonalLoop=1;jettySize=auto;html=1;entryX=0.5;entryY=0;entryDx=0;entryDy=0;" parent="WIyWlLk6GJQsqaUBKTNV-1" source="hc3WRIubCdPKdag3Kyi3-1" target="hc3WRIubCdPKdag3Kyi3-86" edge="1">
          <mxGeometry relative="1" as="geometry" />
        </mxCell>
        <mxCell id="hc3WRIubCdPKdag3Kyi3-1" value="" style="strokeWidth=2;html=1;shape=mxgraph.flowchart.start_2;whiteSpace=wrap;fillColor=#0a0a0a;" parent="WIyWlLk6GJQsqaUBKTNV-1" vertex="1">
          <mxGeometry x="295" y="20" width="20" height="20" as="geometry" />
        </mxCell>
        <mxCell id="hc3WRIubCdPKdag3Kyi3-6" value="" style="edgeStyle=orthogonalEdgeStyle;rounded=0;orthogonalLoop=1;jettySize=auto;html=1;entryX=0.5;entryY=0;entryDx=0;entryDy=0;" parent="WIyWlLk6GJQsqaUBKTNV-1" source="hc3WRIubCdPKdag3Kyi3-4" target="hc3WRIubCdPKdag3Kyi3-5" edge="1">
          <mxGeometry relative="1" as="geometry">
            <Array as="points">
              <mxPoint x="200" y="185" />
              <mxPoint x="200" y="270" />
              <mxPoint x="300" y="270" />
            </Array>
          </mxGeometry>
        </mxCell>
        <mxCell id="hc3WRIubCdPKdag3Kyi3-9" value="" style="edgeStyle=orthogonalEdgeStyle;rounded=0;orthogonalLoop=1;jettySize=auto;html=1;entryX=0.5;entryY=0;entryDx=0;entryDy=0;" parent="WIyWlLk6GJQsqaUBKTNV-1" edge="1">
          <mxGeometry relative="1" as="geometry">
            <mxPoint x="253" y="185" as="sourcePoint" />
            <mxPoint x="413" y="220" as="targetPoint" />
          </mxGeometry>
        </mxCell>
        <mxCell id="hc3WRIubCdPKdag3Kyi3-4" value="Already Registered?" style="strokeWidth=2;html=1;shape=mxgraph.flowchart.decision;whiteSpace=wrap;" parent="WIyWlLk6GJQsqaUBKTNV-1" vertex="1">
          <mxGeometry x="250" y="150" width="110" height="70" as="geometry" />
        </mxCell>
        <mxCell id="hc3WRIubCdPKdag3Kyi3-11" value="" style="edgeStyle=orthogonalEdgeStyle;rounded=0;orthogonalLoop=1;jettySize=auto;html=1;" parent="WIyWlLk6GJQsqaUBKTNV-1" source="hc3WRIubCdPKdag3Kyi3-5" target="hc3WRIubCdPKdag3Kyi3-10" edge="1">
          <mxGeometry relative="1" as="geometry" />
        </mxCell>
        <mxCell id="hc3WRIubCdPKdag3Kyi3-5" value="Login" style="whiteSpace=wrap;html=1;strokeWidth=2;" parent="WIyWlLk6GJQsqaUBKTNV-1" vertex="1">
          <mxGeometry x="260" y="300" width="80" height="30" as="geometry" />
        </mxCell>
        <mxCell id="hc3WRIubCdPKdag3Kyi3-81" style="edgeStyle=orthogonalEdgeStyle;rounded=0;orthogonalLoop=1;jettySize=auto;html=1;entryX=0.5;entryY=0;entryDx=0;entryDy=0;" parent="WIyWlLk6GJQsqaUBKTNV-1" source="hc3WRIubCdPKdag3Kyi3-8" target="hc3WRIubCdPKdag3Kyi3-5" edge="1">
          <mxGeometry relative="1" as="geometry">
            <Array as="points">
              <mxPoint x="410" y="270" />
              <mxPoint x="300" y="270" />
            </Array>
          </mxGeometry>
        </mxCell>
        <mxCell id="hc3WRIubCdPKdag3Kyi3-8" value="User Registration" style="whiteSpace=wrap;html=1;strokeWidth=2;" parent="WIyWlLk6GJQsqaUBKTNV-1" vertex="1">
          <mxGeometry x="370" y="220" width="80" height="30" as="geometry" />
        </mxCell>
        <mxCell id="hc3WRIubCdPKdag3Kyi3-15" style="edgeStyle=orthogonalEdgeStyle;rounded=0;orthogonalLoop=1;jettySize=auto;html=1;entryX=1;entryY=0.5;entryDx=0;entryDy=0;exitX=1;exitY=0.5;exitDx=0;exitDy=0;" parent="WIyWlLk6GJQsqaUBKTNV-1" source="hc3WRIubCdPKdag3Kyi3-10" target="hc3WRIubCdPKdag3Kyi3-5" edge="1">
          <mxGeometry relative="1" as="geometry">
            <mxPoint x="330" y="230" as="targetPoint" />
            <Array as="points">
              <mxPoint x="410" y="420" />
              <mxPoint x="410" y="315" />
            </Array>
          </mxGeometry>
        </mxCell>
        <mxCell id="hc3WRIubCdPKdag3Kyi3-93" style="edgeStyle=orthogonalEdgeStyle;rounded=0;orthogonalLoop=1;jettySize=auto;html=1;exitX=0;exitY=0.5;exitDx=0;exitDy=0;" parent="WIyWlLk6GJQsqaUBKTNV-1" source="hc3WRIubCdPKdag3Kyi3-10" target="hc3WRIubCdPKdag3Kyi3-92" edge="1">
          <mxGeometry relative="1" as="geometry">
            <Array as="points">
              <mxPoint x="200" y="420" />
              <mxPoint x="200" y="490" />
              <mxPoint x="300" y="490" />
            </Array>
          </mxGeometry>
        </mxCell>
        <mxCell id="hc3WRIubCdPKdag3Kyi3-10" value="Login&amp;nbsp; Successful?" style="rhombus;whiteSpace=wrap;html=1;strokeWidth=2;" parent="WIyWlLk6GJQsqaUBKTNV-1" vertex="1">
          <mxGeometry x="250" y="380" width="100" height="80" as="geometry" />
        </mxCell>
        <mxCell id="hc3WRIubCdPKdag3Kyi3-13" value="Setup Profile" style="whiteSpace=wrap;html=1;strokeWidth=2;" parent="WIyWlLk6GJQsqaUBKTNV-1" vertex="1">
          <mxGeometry x="260" y="690" width="80" height="30" as="geometry" />
        </mxCell>
        <mxCell id="hc3WRIubCdPKdag3Kyi3-29" value="" style="edgeStyle=orthogonalEdgeStyle;rounded=0;orthogonalLoop=1;jettySize=auto;html=1;exitX=0.5;exitY=1;exitDx=0;exitDy=0;entryX=0.5;entryY=0;entryDx=0;entryDy=0;" parent="WIyWlLk6GJQsqaUBKTNV-1" source="hc3WRIubCdPKdag3Kyi3-18" target="hc3WRIubCdPKdag3Kyi3-28" edge="1">
          <mxGeometry relative="1" as="geometry">
            <mxPoint x="-31.19999999999999" y="730.23" as="sourcePoint" />
            <mxPoint x="-225" y="800" as="targetPoint" />
            <Array as="points">
              <mxPoint x="35" y="770" />
              <mxPoint x="-225" y="770" />
            </Array>
          </mxGeometry>
        </mxCell>
        <mxCell id="hc3WRIubCdPKdag3Kyi3-33" style="edgeStyle=orthogonalEdgeStyle;rounded=0;orthogonalLoop=1;jettySize=auto;html=1;entryX=0.5;entryY=0;entryDx=0;entryDy=0;exitX=0.25;exitY=1;exitDx=0;exitDy=0;" parent="WIyWlLk6GJQsqaUBKTNV-1" source="hc3WRIubCdPKdag3Kyi3-18" target="hc3WRIubCdPKdag3Kyi3-31" edge="1">
          <mxGeometry relative="1" as="geometry">
            <Array as="points">
              <mxPoint x="35" y="745" />
              <mxPoint x="35" y="770" />
              <mxPoint x="-85" y="770" />
            </Array>
          </mxGeometry>
        </mxCell>
        <mxCell id="hc3WRIubCdPKdag3Kyi3-35" style="edgeStyle=orthogonalEdgeStyle;rounded=0;orthogonalLoop=1;jettySize=auto;html=1;entryX=0.5;entryY=0;entryDx=0;entryDy=0;exitX=0.5;exitY=1;exitDx=0;exitDy=0;" parent="WIyWlLk6GJQsqaUBKTNV-1" source="hc3WRIubCdPKdag3Kyi3-18" target="hc3WRIubCdPKdag3Kyi3-34" edge="1">
          <mxGeometry relative="1" as="geometry">
            <Array as="points">
              <mxPoint x="35" y="770" />
              <mxPoint x="155" y="770" />
            </Array>
          </mxGeometry>
        </mxCell>
        <mxCell id="hc3WRIubCdPKdag3Kyi3-37" style="edgeStyle=orthogonalEdgeStyle;rounded=0;orthogonalLoop=1;jettySize=auto;html=1;exitX=0.5;exitY=1;exitDx=0;exitDy=0;" parent="WIyWlLk6GJQsqaUBKTNV-1" source="hc3WRIubCdPKdag3Kyi3-18" target="hc3WRIubCdPKdag3Kyi3-36" edge="1">
          <mxGeometry relative="1" as="geometry">
            <Array as="points">
              <mxPoint x="35" y="770" />
              <mxPoint x="295" y="770" />
            </Array>
          </mxGeometry>
        </mxCell>
        <mxCell id="hc3WRIubCdPKdag3Kyi3-18" value="User Dashboard" style="whiteSpace=wrap;html=1;strokeWidth=2;" parent="WIyWlLk6GJQsqaUBKTNV-1" vertex="1">
          <mxGeometry x="-15" y="720" width="100" height="25" as="geometry" />
        </mxCell>
        <mxCell id="hc3WRIubCdPKdag3Kyi3-20" value="Yes" style="text;html=1;align=center;verticalAlign=middle;resizable=0;points=[];autosize=1;strokeColor=none;fillColor=none;" parent="WIyWlLk6GJQsqaUBKTNV-1" vertex="1">
          <mxGeometry x="195" y="160" width="40" height="30" as="geometry" />
        </mxCell>
        <mxCell id="hc3WRIubCdPKdag3Kyi3-21" value="No" style="text;html=1;align=center;verticalAlign=middle;resizable=0;points=[];autosize=1;strokeColor=none;fillColor=none;" parent="WIyWlLk6GJQsqaUBKTNV-1" vertex="1">
          <mxGeometry x="370" y="160" width="40" height="30" as="geometry" />
        </mxCell>
        <mxCell id="hc3WRIubCdPKdag3Kyi3-24" value="No" style="text;html=1;align=center;verticalAlign=middle;resizable=0;points=[];autosize=1;strokeColor=none;fillColor=none;" parent="WIyWlLk6GJQsqaUBKTNV-1" vertex="1">
          <mxGeometry x="340" y="400" width="40" height="30" as="geometry" />
        </mxCell>
        <mxCell id="hc3WRIubCdPKdag3Kyi3-43" value="" style="edgeStyle=orthogonalEdgeStyle;rounded=0;orthogonalLoop=1;jettySize=auto;html=1;" parent="WIyWlLk6GJQsqaUBKTNV-1" source="hc3WRIubCdPKdag3Kyi3-28" target="hc3WRIubCdPKdag3Kyi3-42" edge="1">
          <mxGeometry relative="1" as="geometry">
            <Array as="points">
              <mxPoint x="-225" y="880" />
              <mxPoint x="-225" y="880" />
            </Array>
          </mxGeometry>
        </mxCell>
        <mxCell id="hc3WRIubCdPKdag3Kyi3-28" value="Health Metrics Page" style="whiteSpace=wrap;html=1;strokeWidth=2;" parent="WIyWlLk6GJQsqaUBKTNV-1" vertex="1">
          <mxGeometry x="-275" y="805" width="100" height="30" as="geometry" />
        </mxCell>
        <mxCell id="hc3WRIubCdPKdag3Kyi3-46" value="" style="edgeStyle=orthogonalEdgeStyle;rounded=0;orthogonalLoop=1;jettySize=auto;html=1;" parent="WIyWlLk6GJQsqaUBKTNV-1" source="hc3WRIubCdPKdag3Kyi3-31" target="hc3WRIubCdPKdag3Kyi3-45" edge="1">
          <mxGeometry relative="1" as="geometry" />
        </mxCell>
        <mxCell id="hc3WRIubCdPKdag3Kyi3-31" value="Diet Page" style="whiteSpace=wrap;html=1;strokeWidth=2;" parent="WIyWlLk6GJQsqaUBKTNV-1" vertex="1">
          <mxGeometry x="-135" y="805" width="100" height="30" as="geometry" />
        </mxCell>
        <mxCell id="hc3WRIubCdPKdag3Kyi3-54" value="" style="edgeStyle=orthogonalEdgeStyle;rounded=0;orthogonalLoop=1;jettySize=auto;html=1;" parent="WIyWlLk6GJQsqaUBKTNV-1" source="hc3WRIubCdPKdag3Kyi3-34" target="hc3WRIubCdPKdag3Kyi3-53" edge="1">
          <mxGeometry relative="1" as="geometry" />
        </mxCell>
        <mxCell id="hc3WRIubCdPKdag3Kyi3-34" value="Physical Health Page" style="whiteSpace=wrap;html=1;strokeWidth=2;" parent="WIyWlLk6GJQsqaUBKTNV-1" vertex="1">
          <mxGeometry x="105" y="805" width="100" height="30" as="geometry" />
        </mxCell>
        <mxCell id="hc3WRIubCdPKdag3Kyi3-60" value="" style="edgeStyle=orthogonalEdgeStyle;rounded=0;orthogonalLoop=1;jettySize=auto;html=1;" parent="WIyWlLk6GJQsqaUBKTNV-1" source="hc3WRIubCdPKdag3Kyi3-36" target="hc3WRIubCdPKdag3Kyi3-59" edge="1">
          <mxGeometry relative="1" as="geometry" />
        </mxCell>
        <mxCell id="hc3WRIubCdPKdag3Kyi3-36" value="Mental Health Page" style="whiteSpace=wrap;html=1;strokeWidth=2;" parent="WIyWlLk6GJQsqaUBKTNV-1" vertex="1">
          <mxGeometry x="245" y="805" width="100" height="30" as="geometry" />
        </mxCell>
        <mxCell id="hc3WRIubCdPKdag3Kyi3-72" style="edgeStyle=orthogonalEdgeStyle;rounded=0;orthogonalLoop=1;jettySize=auto;html=1;entryX=0.5;entryY=0;entryDx=0;entryDy=0;" parent="WIyWlLk6GJQsqaUBKTNV-1" source="hc3WRIubCdPKdag3Kyi3-42" target="hc3WRIubCdPKdag3Kyi3-71" edge="1">
          <mxGeometry relative="1" as="geometry" />
        </mxCell>
        <mxCell id="hc3WRIubCdPKdag3Kyi3-42" value="Getting User Data" style="whiteSpace=wrap;html=1;strokeWidth=2;" parent="WIyWlLk6GJQsqaUBKTNV-1" vertex="1">
          <mxGeometry x="-275" y="870" width="100" height="30" as="geometry" />
        </mxCell>
        <mxCell id="hc3WRIubCdPKdag3Kyi3-50" value="" style="edgeStyle=orthogonalEdgeStyle;rounded=0;orthogonalLoop=1;jettySize=auto;html=1;" parent="WIyWlLk6GJQsqaUBKTNV-1" source="hc3WRIubCdPKdag3Kyi3-45" target="hc3WRIubCdPKdag3Kyi3-49" edge="1">
          <mxGeometry relative="1" as="geometry" />
        </mxCell>
        <mxCell id="hc3WRIubCdPKdag3Kyi3-45" value="Enter Required Details" style="whiteSpace=wrap;html=1;strokeWidth=2;" parent="WIyWlLk6GJQsqaUBKTNV-1" vertex="1">
          <mxGeometry x="-135" y="870" width="100" height="30" as="geometry" />
        </mxCell>
        <mxCell id="hc3WRIubCdPKdag3Kyi3-52" value="" style="edgeStyle=orthogonalEdgeStyle;rounded=0;orthogonalLoop=1;jettySize=auto;html=1;" parent="WIyWlLk6GJQsqaUBKTNV-1" source="hc3WRIubCdPKdag3Kyi3-49" target="hc3WRIubCdPKdag3Kyi3-51" edge="1">
          <mxGeometry relative="1" as="geometry" />
        </mxCell>
        <mxCell id="hc3WRIubCdPKdag3Kyi3-49" value="Get Diet Plan" style="whiteSpace=wrap;html=1;strokeWidth=2;" parent="WIyWlLk6GJQsqaUBKTNV-1" vertex="1">
          <mxGeometry x="-135" y="930" width="100" height="30" as="geometry" />
        </mxCell>
        <mxCell id="hc3WRIubCdPKdag3Kyi3-124" style="edgeStyle=orthogonalEdgeStyle;rounded=0;orthogonalLoop=1;jettySize=auto;html=1;entryX=0.5;entryY=0;entryDx=0;entryDy=0;" parent="WIyWlLk6GJQsqaUBKTNV-1" source="hc3WRIubCdPKdag3Kyi3-51" target="hc3WRIubCdPKdag3Kyi3-63" edge="1">
          <mxGeometry relative="1" as="geometry">
            <Array as="points">
              <mxPoint x="-85" y="1060" />
              <mxPoint x="300" y="1060" />
            </Array>
          </mxGeometry>
        </mxCell>
        <mxCell id="hc3WRIubCdPKdag3Kyi3-51" value="Update Dashboard" style="whiteSpace=wrap;html=1;strokeWidth=2;" parent="WIyWlLk6GJQsqaUBKTNV-1" vertex="1">
          <mxGeometry x="-135" y="990" width="100" height="30" as="geometry" />
        </mxCell>
        <mxCell id="hc3WRIubCdPKdag3Kyi3-56" value="" style="edgeStyle=orthogonalEdgeStyle;rounded=0;orthogonalLoop=1;jettySize=auto;html=1;" parent="WIyWlLk6GJQsqaUBKTNV-1" source="hc3WRIubCdPKdag3Kyi3-53" target="hc3WRIubCdPKdag3Kyi3-55" edge="1">
          <mxGeometry relative="1" as="geometry" />
        </mxCell>
        <mxCell id="hc3WRIubCdPKdag3Kyi3-53" value="Select Body Part" style="whiteSpace=wrap;html=1;strokeWidth=2;" parent="WIyWlLk6GJQsqaUBKTNV-1" vertex="1">
          <mxGeometry x="105" y="870" width="100" height="30" as="geometry" />
        </mxCell>
        <mxCell id="hc3WRIubCdPKdag3Kyi3-58" value="" style="edgeStyle=orthogonalEdgeStyle;rounded=0;orthogonalLoop=1;jettySize=auto;html=1;" parent="WIyWlLk6GJQsqaUBKTNV-1" source="hc3WRIubCdPKdag3Kyi3-55" target="hc3WRIubCdPKdag3Kyi3-57" edge="1">
          <mxGeometry relative="1" as="geometry" />
        </mxCell>
        <mxCell id="hc3WRIubCdPKdag3Kyi3-55" value="Get Exercise Plan" style="whiteSpace=wrap;html=1;strokeWidth=2;" parent="WIyWlLk6GJQsqaUBKTNV-1" vertex="1">
          <mxGeometry x="105" y="930" width="100" height="30" as="geometry" />
        </mxCell>
        <mxCell id="hc3WRIubCdPKdag3Kyi3-125" style="edgeStyle=orthogonalEdgeStyle;rounded=0;orthogonalLoop=1;jettySize=auto;html=1;exitX=0.5;exitY=1;exitDx=0;exitDy=0;" parent="WIyWlLk6GJQsqaUBKTNV-1" source="hc3WRIubCdPKdag3Kyi3-57" edge="1">
          <mxGeometry relative="1" as="geometry">
            <mxPoint x="300" y="1100" as="targetPoint" />
          </mxGeometry>
        </mxCell>
        <mxCell id="hc3WRIubCdPKdag3Kyi3-57" value="Update Dashboard" style="whiteSpace=wrap;html=1;strokeWidth=2;" parent="WIyWlLk6GJQsqaUBKTNV-1" vertex="1">
          <mxGeometry x="105" y="990" width="100" height="30" as="geometry" />
        </mxCell>
        <mxCell id="hc3WRIubCdPKdag3Kyi3-62" value="" style="edgeStyle=orthogonalEdgeStyle;rounded=0;orthogonalLoop=1;jettySize=auto;html=1;" parent="WIyWlLk6GJQsqaUBKTNV-1" source="hc3WRIubCdPKdag3Kyi3-59" target="hc3WRIubCdPKdag3Kyi3-61" edge="1">
          <mxGeometry relative="1" as="geometry" />
        </mxCell>
        <mxCell id="hc3WRIubCdPKdag3Kyi3-59" value="Enter stress details" style="whiteSpace=wrap;html=1;strokeWidth=2;" parent="WIyWlLk6GJQsqaUBKTNV-1" vertex="1">
          <mxGeometry x="245" y="870" width="100" height="30" as="geometry" />
        </mxCell>
        <mxCell id="hc3WRIubCdPKdag3Kyi3-127" style="edgeStyle=orthogonalEdgeStyle;rounded=0;orthogonalLoop=1;jettySize=auto;html=1;entryX=0.5;entryY=0;entryDx=0;entryDy=0;" parent="WIyWlLk6GJQsqaUBKTNV-1" source="hc3WRIubCdPKdag3Kyi3-61" target="hc3WRIubCdPKdag3Kyi3-63" edge="1">
          <mxGeometry relative="1" as="geometry">
            <Array as="points">
              <mxPoint x="295" y="1060" />
              <mxPoint x="300" y="1060" />
            </Array>
          </mxGeometry>
        </mxCell>
        <mxCell id="hc3WRIubCdPKdag3Kyi3-61" value="View Recommendation" style="whiteSpace=wrap;html=1;strokeWidth=2;" parent="WIyWlLk6GJQsqaUBKTNV-1" vertex="1">
          <mxGeometry x="245" y="930" width="100" height="30" as="geometry" />
        </mxCell>
        <mxCell id="hc3WRIubCdPKdag3Kyi3-63" value="Logout" style="whiteSpace=wrap;html=1;strokeWidth=2;" parent="WIyWlLk6GJQsqaUBKTNV-1" vertex="1">
          <mxGeometry x="260" y="1100" width="80" height="30" as="geometry" />
        </mxCell>
        <mxCell id="hc3WRIubCdPKdag3Kyi3-64" value="" style="strokeWidth=2;html=1;shape=mxgraph.flowchart.start_2;whiteSpace=wrap;" parent="WIyWlLk6GJQsqaUBKTNV-1" vertex="1">
          <mxGeometry x="280" y="1160" width="35" height="30" as="geometry" />
        </mxCell>
        <mxCell id="hc3WRIubCdPKdag3Kyi3-65" value="" style="strokeWidth=2;html=1;shape=mxgraph.flowchart.start_2;whiteSpace=wrap;fillColor=#000000;" parent="WIyWlLk6GJQsqaUBKTNV-1" vertex="1">
          <mxGeometry x="287.5" y="1165" width="20" height="20" as="geometry" />
        </mxCell>
        <mxCell id="hc3WRIubCdPKdag3Kyi3-66" style="edgeStyle=orthogonalEdgeStyle;rounded=0;orthogonalLoop=1;jettySize=auto;html=1;exitX=0.5;exitY=1;exitDx=0;exitDy=0;entryX=0.5;entryY=0;entryDx=0;entryDy=0;entryPerimeter=0;" parent="WIyWlLk6GJQsqaUBKTNV-1" source="hc3WRIubCdPKdag3Kyi3-63" target="hc3WRIubCdPKdag3Kyi3-64" edge="1">
          <mxGeometry relative="1" as="geometry" />
        </mxCell>
        <mxCell id="hc3WRIubCdPKdag3Kyi3-128" style="edgeStyle=orthogonalEdgeStyle;rounded=0;orthogonalLoop=1;jettySize=auto;html=1;entryX=0.5;entryY=0;entryDx=0;entryDy=0;exitX=0.5;exitY=1;exitDx=0;exitDy=0;" parent="WIyWlLk6GJQsqaUBKTNV-1" source="hc3WRIubCdPKdag3Kyi3-71" target="hc3WRIubCdPKdag3Kyi3-63" edge="1">
          <mxGeometry relative="1" as="geometry">
            <Array as="points">
              <mxPoint x="-225" y="1060" />
              <mxPoint x="300" y="1060" />
            </Array>
          </mxGeometry>
        </mxCell>
        <mxCell id="hc3WRIubCdPKdag3Kyi3-71" value="Update Dashboard" style="whiteSpace=wrap;html=1;strokeWidth=2;" parent="WIyWlLk6GJQsqaUBKTNV-1" vertex="1">
          <mxGeometry x="-275" y="930" width="100" height="30" as="geometry" />
        </mxCell>
        <mxCell id="hc3WRIubCdPKdag3Kyi3-86" value="Landing Page" style="whiteSpace=wrap;html=1;strokeWidth=2;" parent="WIyWlLk6GJQsqaUBKTNV-1" vertex="1">
          <mxGeometry x="265" y="70" width="80" height="30" as="geometry" />
        </mxCell>
        <mxCell id="hc3WRIubCdPKdag3Kyi3-87" style="edgeStyle=orthogonalEdgeStyle;rounded=0;orthogonalLoop=1;jettySize=auto;html=1;entryX=0.5;entryY=0;entryDx=0;entryDy=0;entryPerimeter=0;" parent="WIyWlLk6GJQsqaUBKTNV-1" source="hc3WRIubCdPKdag3Kyi3-86" target="hc3WRIubCdPKdag3Kyi3-4" edge="1">
          <mxGeometry relative="1" as="geometry" />
        </mxCell>
        <mxCell id="hc3WRIubCdPKdag3Kyi3-115" style="edgeStyle=orthogonalEdgeStyle;rounded=0;orthogonalLoop=1;jettySize=auto;html=1;entryX=0.5;entryY=0;entryDx=0;entryDy=0;" parent="WIyWlLk6GJQsqaUBKTNV-1" source="hc3WRIubCdPKdag3Kyi3-92" target="hc3WRIubCdPKdag3Kyi3-99" edge="1">
          <mxGeometry relative="1" as="geometry" />
        </mxCell>
        <mxCell id="hc3WRIubCdPKdag3Kyi3-117" style="edgeStyle=orthogonalEdgeStyle;rounded=0;orthogonalLoop=1;jettySize=auto;html=1;entryX=0.5;entryY=0;entryDx=0;entryDy=0;" parent="WIyWlLk6GJQsqaUBKTNV-1" source="hc3WRIubCdPKdag3Kyi3-92" target="hc3WRIubCdPKdag3Kyi3-116" edge="1">
          <mxGeometry relative="1" as="geometry" />
        </mxCell>
        <mxCell id="hc3WRIubCdPKdag3Kyi3-92" value="User Role?" style="rhombus;whiteSpace=wrap;html=1;strokeWidth=2;" parent="WIyWlLk6GJQsqaUBKTNV-1" vertex="1">
          <mxGeometry x="250" y="520" width="100" height="80" as="geometry" />
        </mxCell>
        <mxCell id="hc3WRIubCdPKdag3Kyi3-94" value="Yes" style="text;html=1;align=center;verticalAlign=middle;resizable=0;points=[];autosize=1;strokeColor=none;fillColor=none;" parent="WIyWlLk6GJQsqaUBKTNV-1" vertex="1">
          <mxGeometry x="190" y="400" width="40" height="30" as="geometry" />
        </mxCell>
        <mxCell id="hc3WRIubCdPKdag3Kyi3-102" style="edgeStyle=orthogonalEdgeStyle;rounded=0;orthogonalLoop=1;jettySize=auto;html=1;" parent="WIyWlLk6GJQsqaUBKTNV-1" source="hc3WRIubCdPKdag3Kyi3-99" target="hc3WRIubCdPKdag3Kyi3-18" edge="1">
          <mxGeometry relative="1" as="geometry" />
        </mxCell>
        <mxCell id="hc3WRIubCdPKdag3Kyi3-103" style="edgeStyle=orthogonalEdgeStyle;rounded=0;orthogonalLoop=1;jettySize=auto;html=1;entryX=0.5;entryY=0;entryDx=0;entryDy=0;" parent="WIyWlLk6GJQsqaUBKTNV-1" source="hc3WRIubCdPKdag3Kyi3-99" target="hc3WRIubCdPKdag3Kyi3-13" edge="1">
          <mxGeometry relative="1" as="geometry" />
        </mxCell>
        <mxCell id="hc3WRIubCdPKdag3Kyi3-99" value="Profile Completed?" style="rhombus;whiteSpace=wrap;html=1;strokeWidth=2;" parent="WIyWlLk6GJQsqaUBKTNV-1" vertex="1">
          <mxGeometry x="90" y="630" width="100" height="80" as="geometry" />
        </mxCell>
        <mxCell id="hc3WRIubCdPKdag3Kyi3-104" value="Yes" style="text;html=1;align=center;verticalAlign=middle;resizable=0;points=[];autosize=1;strokeColor=none;fillColor=none;" parent="WIyWlLk6GJQsqaUBKTNV-1" vertex="1">
          <mxGeometry x="20" y="650" width="40" height="30" as="geometry" />
        </mxCell>
        <mxCell id="hc3WRIubCdPKdag3Kyi3-105" value="No" style="text;html=1;align=center;verticalAlign=middle;resizable=0;points=[];autosize=1;strokeColor=none;fillColor=none;" parent="WIyWlLk6GJQsqaUBKTNV-1" vertex="1">
          <mxGeometry x="250" y="650" width="40" height="30" as="geometry" />
        </mxCell>
        <mxCell id="hc3WRIubCdPKdag3Kyi3-116" value="Admin Dashboard" style="whiteSpace=wrap;html=1;strokeWidth=2;" parent="WIyWlLk6GJQsqaUBKTNV-1" vertex="1">
          <mxGeometry x="440" y="657.5" width="100" height="25" as="geometry" />
        </mxCell>
        <mxCell id="hc3WRIubCdPKdag3Kyi3-120" value="User" style="text;html=1;align=center;verticalAlign=middle;resizable=0;points=[];autosize=1;strokeColor=none;fillColor=none;" parent="WIyWlLk6GJQsqaUBKTNV-1" vertex="1">
          <mxGeometry x="135" y="530" width="50" height="30" as="geometry" />
        </mxCell>
        <mxCell id="hc3WRIubCdPKdag3Kyi3-123" value="Admin" style="text;html=1;align=center;verticalAlign=middle;resizable=0;points=[];autosize=1;strokeColor=none;fillColor=none;" parent="WIyWlLk6GJQsqaUBKTNV-1" vertex="1">
          <mxGeometry x="430" y="530" width="60" height="30" as="geometry" />
        </mxCell>
      </root>
    </mxGraphModel>
  </diagram>
</mxfile>
